<svg viewBox="0 0 800 500" xmlns="http://www.w3.org/2000/svg">
  <defs>
    <pattern id="g3" width="40" height="40" patternUnits="userSpaceOnUse">
      <path d="M 40 0 L 0 0 0 40" fill="none" stroke="rgba(42,111,219,0.10)" stroke-width="1"/>
    </pattern>
  </defs>
  <rect width="800" height="500" fill="#f5f5f8"/>
  <rect width="800" height="500" fill="url(#g3)"/>
  <g stroke="#2a6fdb" stroke-width="3" fill="rgba(42,111,219,0.06)">
    <rect x="300" y="150" width="120" height="240" rx="14"/>
    <rect x="440" y="230" width="80" height="160" rx="10"/>
    <line x1="300" y1="210" x2="420" y2="210" stroke-width="1.4" opacity="0.5"/>
  </g>
  <g stroke="#c8a84e" stroke-width="2.5" opacity="0.85">
    <path d="M 350 270 C 350 255, 365 245, 365 245 C 365 245, 380 255, 380 270 A 15 15 0 1 1 350 270 Z"/>
    <path d="M 350 320 C 350 305, 365 295, 365 295 C 365 295, 380 305, 380 320 A 15 15 0 1 1 350 320 Z"/>
  </g>
  <text x="40" y="450" font-family="'Roboto Mono', monospace" font-size="14" letter-spacing="2" fill="#2a6fdb" opacity="0.6">ECO WATER HEATER</text>
  <text x="40" y="472" font-family="'Noto Sans JP', sans-serif" font-size="13" fill="#8888a0">エコキュート設置・交換</text>
</svg>
