<svg viewBox="0 0 800 500" xmlns="http://www.w3.org/2000/svg">
  <defs>
    <pattern id="g4" width="40" height="40" patternUnits="userSpaceOnUse">
      <path d="M 40 0 L 0 0 0 40" fill="none" stroke="rgba(42,111,219,0.10)" stroke-width="1"/>
    </pattern>
  </defs>
  <rect width="800" height="500" fill="#f5f5f8"/>
  <rect width="800" height="500" fill="url(#g4)"/>
  <g stroke="#2a6fdb" stroke-width="3" fill="rgba(42,111,219,0.06)">
    <path d="M 350 150 C 350 200, 420 260, 420 320 A 70 70 0 1 1 280 320 C 280 260, 350 200, 350 150 Z"/>
  </g>
  <g stroke="#ffffff" stroke-width="3" fill="none" opacity="0.9">
    <path d="M 330 280 C 330 300, 350 300, 350 320 C 350 340, 330 340, 330 355" stroke-linecap="round"/>
  </g>
  <g stroke="#c8a84e" stroke-width="2" opacity="0.8">
    <line x1="470" y1="200" x2="470" y2="400"/>
    <line x1="450" y1="220" x2="490" y2="220"/>
    <line x1="450" y1="380" x2="490" y2="380"/>
  </g>
  <text x="40" y="450" font-family="'Roboto Mono', monospace" font-size="14" letter-spacing="2" fill="#2a6fdb" opacity="0.6">WHOLE-HOUSE PURIFIER</text>
  <text x="40" y="472" font-family="'Noto Sans JP', sans-serif" font-size="13" fill="#8888a0">セントラル浄水器設置</text>
</svg>
