<svg viewBox="0 0 800 500" xmlns="http://www.w3.org/2000/svg">
  <defs>
    <pattern id="g1" width="40" height="40" patternUnits="userSpaceOnUse">
      <path d="M 40 0 L 0 0 0 40" fill="none" stroke="rgba(42,111,219,0.10)" stroke-width="1"/>
    </pattern>
  </defs>
  <rect width="800" height="500" fill="#f5f5f8"/>
  <rect width="800" height="500" fill="url(#g1)"/>
  <g stroke="#2a6fdb" stroke-width="3" fill="rgba(42,111,219,0.06)">
    <path d="M 220 320 L 400 210 L 580 320 L 460 380 L 220 320" />
    <path d="M 280 300 L 280 340 M 340 270 L 340 360 M 400 250 L 400 375 M 460 275 L 460 385 M 520 300 L 520 350" stroke-width="1.4" opacity="0.6"/>
    <line x1="220" y1="320" x2="460" y2="380" stroke-width="1.4" opacity="0.6"/>
  </g>
  <g stroke="#c8a84e" stroke-width="2" opacity="0.8">
    <circle cx="620" cy="150" r="34"/>
    <line x1="620" y1="96" x2="620" y2="70"/>
    <line x1="620" y1="204" x2="620" y2="230"/>
    <line x1="566" y1="150" x2="540" y2="150"/>
    <line x1="674" y1="150" x2="700" y2="150"/>
  </g>
  <text x="40" y="450" font-family="'Roboto Mono', monospace" font-size="14" letter-spacing="2" fill="#2a6fdb" opacity="0.6">SOLAR POWER SYSTEM</text>
  <text x="40" y="472" font-family="'Noto Sans JP', sans-serif" font-size="13" fill="#8888a0">太陽光発電システム</text>
</svg>
